<svg id="レイヤー_1" data-name="レイヤー 1" xmlns="http://www.w3.org/2000/svg" viewBox="0 0 400 91"><defs><style>.cls-1,.cls-3{fill:none;stroke-miterlimit:10;}.cls-1{stroke:#26aa9c;stroke-width:2px;}.cls-2{fill:#1f8bad;}.cls-3{stroke:#b4b4b5;stroke-linecap:round;stroke-width:1px;stroke-dasharray:2 4.01;}.cls-4{fill:#231815;}.cls-5{fill:#26aa9c;}</style></defs><title>logo</title><polygon class="cls-1" points="18 25 1 44 1 68 35 68 35 44 18 25"/><path id="_パス_" data-name="&lt;パス&gt;" class="cls-2" d="M0,0Z"/><path class="cls-3" d="M0,0H0"/><path class="cls-2" d="M0,0Z"/><path class="cls-4" d="M0,0ZM0,0Z"/><path class="cls-4" d="M0,0Z"/><path class="cls-4" d="M0,0ZM0,0Z"/><polygon class="cls-4" points="151 69 159 25 164 25 156 69 151 69"/><path class="cls-4" d="M0,0ZM0,0Z"/><path class="cls-5" d="M0,0Z"/><path class="cls-4" d="M0,0Z"/><path class="cls-4" d="M0,0ZM0,0Z"/><path class="cls-4" d="M0,0ZM0,0Z"/><path class="cls-4" d="M0,0ZM0,0Z"/><path class="cls-4" d="M0,0Z"/><polygon class="cls-4" points="384 69 388 48 381 48 382 44 389 44 390 34 395 34 393 44 400 44 399 48 393 48 389 69 384 69"/></svg>